<svg width="180" height="31" viewBox="0 0 180 31" fill="none" xmlns="http://www.w3.org/2000/svg">
<path d="M29.713 0.737305V20.9677C29.713 23.4965 28.9403 25.5335 27.4301 27.1492C25.9199 28.7648 23.953 29.5375 21.5296 29.5375C18.6145 29.5375 16.4019 28.2028 14.8565 25.5687C13.9082 27.0087 12.8897 28.0272 11.8009 28.6243C10.7121 29.2214 9.37751 29.5375 7.79703 29.5375C5.26826 29.5375 3.33657 28.7296 2.00194 27.1492C0.667313 25.5687 0 23.2506 0 20.2652V0.737305H8.35898V19.0008C8.35898 19.914 8.42922 20.5111 8.56971 20.792C8.7102 21.073 8.99117 21.2135 9.44775 21.2135C10.2556 21.2135 10.677 20.5111 10.677 19.1413V0.737305H19.036V19.0008C19.036 19.8789 19.1062 20.4759 19.2467 20.7569C19.3872 21.0379 19.7033 21.2135 20.1248 21.2135C20.9326 21.2135 21.354 20.4759 21.354 19.0008V0.737305H29.713Z" fill="#3B465E"/>
<path d="M49.7332 11.6613V17.913H44.2894C43.5518 17.913 43.025 18.0184 42.7089 18.2291C42.3928 18.4399 42.2523 18.8262 42.2523 19.353C42.2523 19.9501 42.3928 20.3365 42.7089 20.5121C43.025 20.6877 43.6572 20.7931 44.6406 20.7931H50.26V28.836H43.6923C40.6016 28.836 38.2484 28.0985 36.5977 26.6233C34.947 25.1482 34.1392 23.0058 34.1392 20.2311V9.23787C34.1392 6.53347 34.9118 4.46126 36.4572 2.98613C38.0026 1.511 40.1801 0.773438 42.9547 0.773438H50.2249V8.85153H44.8864C43.4464 8.85153 42.7089 9.30812 42.7089 10.2564C42.7089 10.8184 42.8845 11.1696 43.2357 11.4154C43.5869 11.6613 44.184 11.7315 45.062 11.7315H49.663L49.7332 11.6613Z" fill="#3B465E"/>
<path d="M55.071 0.737305H65.2914C71.3324 0.737305 74.3529 3.12561 74.3529 7.8671C74.3529 10.2203 73.3343 12.1871 71.2621 13.7676C74.2826 15.0671 75.7577 17.3852 75.7577 20.7569C75.7577 23.3208 74.8797 25.3579 73.0885 26.9033C72.2104 27.6409 71.2973 28.1326 70.3139 28.4135C69.3304 28.6945 67.9958 28.835 66.31 28.835H64.7295V21.5999H66.1344C66.9773 21.5999 67.5744 21.4945 67.8905 21.2838C68.2065 21.073 68.4173 20.6867 68.4173 20.1598C68.4173 19.2467 67.7148 18.7901 66.31 18.7901H64.6944V11.3091C66.2397 11.3091 67.0124 10.7822 67.0124 9.72857C67.0124 8.74515 66.31 8.25344 64.9402 8.25344H63.3949V28.7999H55.0359V0.737305H55.071Z" fill="#3B465E"/>
<path d="M92.3345 0.597076V8.60492C91.7375 8.39419 91.2809 8.28882 90.9297 8.28882C90.2975 8.28882 89.7706 8.53468 89.3141 8.99127C88.8575 9.44785 88.6467 10.0098 88.6467 10.6771C88.6467 11.2391 88.8926 11.9415 89.3843 12.8196L90.0165 13.9435C91.1755 15.9454 91.7375 17.8772 91.7375 19.7386C91.7375 22.4782 90.7541 24.7962 88.8224 26.6577C86.8907 28.5192 84.5024 29.5026 81.7278 29.5026C80.3931 29.5026 79.0585 29.1865 77.7239 28.5894V20.4762C78.5317 20.9679 79.2341 21.2489 79.8312 21.2489C80.5687 21.2489 81.1658 21.0382 81.6575 20.6167C82.1492 20.1952 82.3951 19.6684 82.3951 19.0362C82.3951 18.6147 82.0087 17.7367 81.2361 16.3318C79.9717 14.1542 79.3746 11.9415 79.3746 9.72883C79.3746 7.09467 80.3229 4.81173 82.2195 2.88002C84.116 0.948298 86.3638 0 88.9628 0C90.1219 0 91.2458 0.175611 92.3697 0.561954L92.3345 0.597076Z" fill="#3B465E"/>
<path d="M109.861 0.0341797C113.83 0.0341797 117.237 1.47419 120.117 4.38932C122.997 7.30446 124.402 10.7464 124.402 14.7855C124.402 18.8245 122.962 22.3719 120.117 25.2519C117.272 28.1319 113.76 29.5368 109.651 29.5368C105.541 29.5368 102.099 28.0968 99.2194 25.2168C96.3394 22.3367 94.8994 18.8596 94.8994 14.7855C94.8994 10.7113 96.3394 7.1991 99.2545 4.31908C102.17 1.43907 105.717 0.0341797 109.896 0.0341797L109.861 0.0341797ZM109.615 8.323C107.894 8.323 106.454 8.9552 105.225 10.2196C103.996 11.484 103.399 12.9942 103.399 14.7855C103.399 16.5767 103.996 18.087 105.225 19.3514C106.454 20.6158 107.894 21.2479 109.615 21.2479C111.336 21.2479 112.812 20.6158 114.006 19.3514C115.2 18.087 115.797 16.5767 115.797 14.7855C115.797 12.9942 115.2 11.4489 114.006 10.2196C112.812 8.99032 111.336 8.323 109.615 8.323Z" fill="#3B465E"/>
<path d="M127.739 0.737305H136.098V17.4203C136.098 18.7198 136.308 19.5979 136.73 20.0194C137.151 20.4408 137.959 20.6516 139.224 20.6516H139.645V28.7999H137.432C134.377 28.7999 132.024 27.9218 130.303 26.1306C128.582 24.3394 127.739 21.8808 127.739 18.7198V0.737305Z" fill="#3B465E"/>
<path d="M162.649 0.737305L150.391 30.4506L138.239 0.737305H147.897L150.461 9.51784L153.306 0.737305H162.614H162.649Z" fill="#3B465E"/>
<path d="M179.473 11.6613V17.913H174.029C173.292 17.913 172.765 18.0184 172.449 18.2291C172.133 18.4399 171.992 18.8262 171.992 19.353C171.992 19.9501 172.133 20.3365 172.449 20.5121C172.765 20.6877 173.397 20.7931 174.381 20.7931H180V28.836H173.432C170.342 28.836 167.988 28.0985 166.338 26.6233C164.687 25.1482 163.879 23.0058 163.879 20.2311V9.23787C163.879 6.53347 164.652 4.46126 166.197 2.98613C167.743 1.511 169.92 0.773438 172.695 0.773438H179.965V8.85153H174.626C173.186 8.85153 172.449 9.30812 172.449 10.2564C172.449 10.8184 172.624 11.1696 172.976 11.4154C173.327 11.6613 173.924 11.7315 174.802 11.7315H179.403L179.473 11.6613Z" fill="#3B465E"/>
</svg>
