<svg width="24" height="24" viewBox="0 0 24 24" fill="none" xmlns="http://www.w3.org/2000/svg">
<path d="M15.1028 3.10333L15.8099 2.39623V2.39623L15.1028 3.10333ZM18.4969 6.49745L17.7898 7.20455L18.4969 6.49745ZM9.6927 16.7075C10.0832 17.098 10.7164 17.098 11.1069 16.7075C11.4974 16.317 11.4974 15.6838 11.1069 15.2933L10.3998 16.0004L9.6927 16.7075ZM8.39981 14.0004L7.6927 13.2933C7.50516 13.4808 7.39981 13.7352 7.39981 14.0004C7.39981 14.2656 7.50516 14.52 7.6927 14.7075L8.39981 14.0004ZM11.1069 12.7075C11.4974 12.317 11.4974 11.6838 11.1069 11.2933C10.7164 10.9028 10.0832 10.9028 9.6927 11.2933L10.3998 12.0004L11.1069 12.7075ZM14.3069 11.2933C13.9164 10.9028 13.2832 10.9028 12.8927 11.2933C12.5022 11.6838 12.5022 12.317 12.8927 12.7075L13.5998 12.0004L14.3069 11.2933ZM15.5998 14.0004L16.3069 14.7075C16.4944 14.52 16.5998 14.2656 16.5998 14.0004C16.5998 13.7352 16.4944 13.4808 16.3069 13.2933L15.5998 14.0004ZM12.8927 15.2933C12.5022 15.6838 12.5022 16.317 12.8927 16.7075C13.2832 17.098 13.9164 17.098 14.3069 16.7075L13.5998 16.0004L12.8927 15.2933ZM16.7998 21.6004V20.6004H7.19981V21.6004V22.6004H16.7998V21.6004ZM4.7998 19.2004H5.7998V4.80039H4.7998H3.7998V19.2004H4.7998ZM7.19981 2.40039V3.40039H13.4057V2.40039V1.40039H7.19981V2.40039ZM19.1998 8.1945H18.1998V19.2004H19.1998H20.1998V8.1945H19.1998ZM13.4057 2.40039V3.40039C13.777 3.40039 14.1331 3.54789 14.3956 3.81044L15.1028 3.10333L15.8099 2.39623C15.1722 1.7586 14.3074 1.40039 13.4057 1.40039V2.40039ZM7.19981 21.6004V20.6004C6.42661 20.6004 5.7998 19.9736 5.7998 19.2004H4.7998H3.7998C3.7998 21.0782 5.32204 22.6004 7.19981 22.6004V21.6004ZM16.7998 21.6004V22.6004C18.6776 22.6004 20.1998 21.0782 20.1998 19.2004H19.1998H18.1998C18.1998 19.9736 17.573 20.6004 16.7998 20.6004V21.6004ZM18.4969 6.49745L17.7898 7.20455C18.0523 7.4671 18.1998 7.8232 18.1998 8.1945H19.1998H20.1998C20.1998 7.29277 19.8416 6.42796 19.204 5.79034L18.4969 6.49745ZM4.7998 4.80039H5.7998C5.7998 4.02719 6.42661 3.40039 7.19981 3.40039V2.40039V1.40039C5.32204 1.40039 3.7998 2.92262 3.7998 4.80039H4.7998ZM13.1998 2.40039H12.1998V7.20039H13.1998H14.1998V2.40039H13.1998ZM14.3998 8.40039V9.40039H19.1998V8.40039V7.40039H14.3998V8.40039ZM13.1998 7.20039H12.1998C12.1998 8.41542 13.1848 9.40039 14.3998 9.40039V8.40039V7.40039C14.2893 7.40039 14.1998 7.31085 14.1998 7.20039H13.1998ZM15.1028 3.10333L14.3956 3.81044L17.7898 7.20455L18.4969 6.49745L19.204 5.79034L15.8099 2.39623L15.1028 3.10333ZM10.3998 16.0004L11.1069 15.2933L9.10691 13.2933L8.39981 14.0004L7.6927 14.7075L9.6927 16.7075L10.3998 16.0004ZM8.39981 14.0004L9.10691 14.7075L11.1069 12.7075L10.3998 12.0004L9.6927 11.2933L7.6927 13.2933L8.39981 14.0004ZM13.5998 12.0004L12.8927 12.7075L14.8927 14.7075L15.5998 14.0004L16.3069 13.2933L14.3069 11.2933L13.5998 12.0004ZM15.5998 14.0004L14.8927 13.2933L12.8927 15.2933L13.5998 16.0004L14.3069 16.7075L16.3069 14.7075L15.5998 14.0004Z" fill="black"/>
</svg>
