<svg width="30" height="30" viewBox="0 0 30 30" fill="none" xmlns="http://www.w3.org/2000/svg">
<path d="M18.8787 3.87868L19.5858 3.17157V3.17157L18.8787 3.87868ZM23.1213 8.12132L22.4142 8.82843L23.1213 8.12132ZM12.2929 20.7071C12.6834 21.0976 13.3166 21.0976 13.7071 20.7071C14.0976 20.3166 14.0976 19.6834 13.7071 19.2929L13 20L12.2929 20.7071ZM10.5 17.5L9.79289 16.7929C9.60536 16.9804 9.5 17.2348 9.5 17.5C9.5 17.7652 9.60536 18.0196 9.79289 18.2071L10.5 17.5ZM13.7071 15.7071C14.0976 15.3166 14.0976 14.6834 13.7071 14.2929C13.3166 13.9024 12.6834 13.9024 12.2929 14.2929L13 15L13.7071 15.7071ZM17.7071 14.2929C17.3166 13.9024 16.6834 13.9024 16.2929 14.2929C15.9024 14.6834 15.9024 15.3166 16.2929 15.7071L17 15L17.7071 14.2929ZM19.5 17.5L20.2071 18.2071C20.5976 17.8166 20.5976 17.1834 20.2071 16.7929L19.5 17.5ZM16.2929 19.2929C15.9024 19.6834 15.9024 20.3166 16.2929 20.7071C16.6834 21.0976 17.3166 21.0976 17.7071 20.7071L17 20L16.2929 19.2929ZM21 27V26H9V27V28H21V27ZM6 24H7V6H6H5V24H6ZM9 3V4H16.7574V3V2H9V3ZM24 10.2426H23V24H24H25V10.2426H24ZM16.7574 3V4C17.2878 4 17.7965 4.21071 18.1716 4.58579L18.8787 3.87868L19.5858 3.17157C18.8356 2.42143 17.8182 2 16.7574 2V3ZM9 27V26C7.89543 26 7 25.1046 7 24H6H5C5 26.2091 6.79086 28 9 28V27ZM21 27V28C23.2091 28 25 26.2091 25 24H24H23C23 25.1046 22.1046 26 21 26V27ZM23.1213 8.12132L22.4142 8.82843C22.7893 9.2035 23 9.71221 23 10.2426H24H25C25 9.18177 24.5786 8.16436 23.8284 7.41421L23.1213 8.12132ZM6 6H7C7 4.89543 7.89543 4 9 4V3V2C6.79086 2 5 3.79086 5 6H6ZM16.5 3H15.5V9H16.5H17.5V3H16.5ZM18 10.5V11.5H24V10.5V9.5H18V10.5ZM16.5 9H15.5C15.5 10.3807 16.6193 11.5 18 11.5V10.5V9.5C17.7239 9.5 17.5 9.27614 17.5 9H16.5ZM18.8787 3.87868L18.1716 4.58579L22.4142 8.82843L23.1213 8.12132L23.8284 7.41421L19.5858 3.17157L18.8787 3.87868ZM13 20L13.7071 19.2929L11.2071 16.7929L10.5 17.5L9.79289 18.2071L12.2929 20.7071L13 20ZM10.5 17.5L11.2071 18.2071L13.7071 15.7071L13 15L12.2929 14.2929L9.79289 16.7929L10.5 17.5ZM17 15L16.2929 15.7071L18.7929 18.2071L19.5 17.5L20.2071 16.7929L17.7071 14.2929L17 15ZM19.5 17.5L18.7929 16.7929L16.2929 19.2929L17 20L17.7071 20.7071L20.2071 18.2071L19.5 17.5Z" fill="black"/>
</svg>
