<svg width="18" height="18" viewBox="0 0 18 18" fill="none" xmlns="http://www.w3.org/2000/svg">
<path d="M5.3998 9.0002C5.3998 9.99431 4.59392 10.8002 3.5998 10.8002C2.60569 10.8002 1.7998 9.99431 1.7998 9.0002C1.7998 8.00608 2.60569 7.2002 3.5998 7.2002C4.59392 7.2002 5.3998 8.00608 5.3998 9.0002Z" fill="black"/>
<path d="M10.7998 9.0002C10.7998 9.99431 9.99392 10.8002 8.9998 10.8002C8.00569 10.8002 7.1998 9.99431 7.1998 9.0002C7.1998 8.00608 8.00569 7.2002 8.9998 7.2002C9.99392 7.2002 10.7998 8.00608 10.7998 9.0002Z" fill="black"/>
<path d="M16.1998 9.0002C16.1998 9.99431 15.3939 10.8002 14.3998 10.8002C13.4057 10.8002 12.5998 9.99431 12.5998 9.0002C12.5998 8.00608 13.4057 7.2002 14.3998 7.2002C15.3939 7.2002 16.1998 8.00608 16.1998 9.0002Z" fill="black"/>
</svg>
