<svg width="30" height="30" viewBox="0 0 30 30" fill="none" xmlns="http://www.w3.org/2000/svg">
<path d="M20.6471 13.125H25.6667C26.403 13.125 27 13.722 27 14.4583V22.2475V23.125C27 24.2296 26.1046 25.125 25 25.125H6M3 6.20833V22.5C3 23.9497 4.17525 25.125 5.625 25.125C7.07475 25.125 8.25 23.9497 8.25 22.5V14.4583C8.25 13.722 8.84695 13.125 9.58333 13.125H24.3333V9.97304C24.3333 9.23666 23.7364 8.63971 23 8.63971H14.2157L12.1782 5.48497C11.9327 5.10469 11.5109 4.875 11.0582 4.875H4.33333C3.59695 4.875 3 5.47195 3 6.20833Z" stroke="black" stroke-width="2" stroke-linecap="round" stroke-linejoin="round"/>
</svg>
