<svg width="180" height="31" viewBox="0 0 180 31" fill="none" xmlns="http://www.w3.org/2000/svg">
<path d="M29.713 0.737427V20.9678C29.713 23.4966 28.9403 25.5337 27.4301 27.1493C25.9199 28.7649 23.953 29.5376 21.5296 29.5376C18.6145 29.5376 16.4019 28.2029 14.8565 25.5688C13.9082 27.0088 12.8897 28.0273 11.8009 28.6244C10.7121 29.2215 9.37751 29.5376 7.79703 29.5376C5.26826 29.5376 3.33657 28.7298 2.00194 27.1493C0.667313 25.5688 0 23.2507 0 20.2653V0.737427H8.35898V19.0009C8.35898 19.9141 8.42922 20.5112 8.56971 20.7922C8.7102 21.0731 8.99117 21.2136 9.44775 21.2136C10.2556 21.2136 10.677 20.5112 10.677 19.1414V0.737427H19.036V19.0009C19.036 19.879 19.1062 20.4761 19.2467 20.757C19.3872 21.038 19.7033 21.2136 20.1248 21.2136C20.9326 21.2136 21.354 20.4761 21.354 19.0009V0.737427H29.713Z" fill="#3B465E"/>
<path d="M49.7332 11.6613V17.913H44.2894C43.5518 17.913 43.025 18.0184 42.7089 18.2291C42.3928 18.4399 42.2523 18.8262 42.2523 19.353C42.2523 19.9501 42.3928 20.3365 42.7089 20.5121C43.025 20.6877 43.6572 20.7931 44.6406 20.7931H50.26V28.836H43.6923C40.6016 28.836 38.2484 28.0985 36.5977 26.6233C34.947 25.1482 34.1392 23.0058 34.1392 20.2311V9.23787C34.1392 6.53347 34.9118 4.46126 36.4572 2.98613C38.0026 1.511 40.1801 0.773438 42.9547 0.773438H50.2249V8.85153H44.8864C43.4464 8.85153 42.7089 9.30812 42.7089 10.2564C42.7089 10.8184 42.8845 11.1696 43.2357 11.4154C43.5869 11.6613 44.184 11.7315 45.062 11.7315H49.663L49.7332 11.6613Z" fill="#3B465E"/>
<path d="M55.071 0.737427H65.2914C71.3324 0.737427 74.3529 3.12573 74.3529 7.86722C74.3529 10.2204 73.3343 12.1872 71.2621 13.7677C74.2826 15.0673 75.7577 17.3853 75.7577 20.757C75.7577 23.321 74.8797 25.358 73.0885 26.9034C72.2104 27.641 71.2973 28.1327 70.3139 28.4137C69.3304 28.6946 67.9958 28.8351 66.31 28.8351H64.7295V21.6H66.1344C66.9773 21.6 67.5744 21.4946 67.8905 21.2839C68.2065 21.0731 68.4173 20.6868 68.4173 20.16C68.4173 19.2468 67.7148 18.7902 66.31 18.7902H64.6944V11.3092C66.2397 11.3092 67.0124 10.7824 67.0124 9.72869C67.0124 8.74527 66.31 8.25356 64.9402 8.25356H63.3949V28.8H55.0359V0.737427H55.071Z" fill="#3B465E"/>
<path d="M92.3345 0.597076V8.60492C91.7375 8.39419 91.2809 8.28882 90.9297 8.28882C90.2975 8.28882 89.7706 8.53468 89.3141 8.99127C88.8575 9.44785 88.6467 10.0098 88.6467 10.6771C88.6467 11.2391 88.8926 11.9415 89.3843 12.8196L90.0165 13.9435C91.1755 15.9454 91.7375 17.8772 91.7375 19.7386C91.7375 22.4782 90.7541 24.7962 88.8224 26.6577C86.8907 28.5192 84.5024 29.5026 81.7278 29.5026C80.3931 29.5026 79.0585 29.1865 77.7239 28.5894V20.4762C78.5317 20.9679 79.2341 21.2489 79.8312 21.2489C80.5687 21.2489 81.1658 21.0382 81.6575 20.6167C82.1492 20.1952 82.3951 19.6684 82.3951 19.0362C82.3951 18.6147 82.0087 17.7367 81.2361 16.3318C79.9717 14.1542 79.3746 11.9415 79.3746 9.72883C79.3746 7.09467 80.3229 4.81173 82.2195 2.88002C84.116 0.948298 86.3638 0 88.9628 0C90.1219 0 91.2458 0.175611 92.3697 0.561954L92.3345 0.597076Z" fill="#3B465E"/>
<path d="M109.861 0.0343018C113.83 0.0343018 117.237 1.47431 120.117 4.38945C122.997 7.30458 124.402 10.7466 124.402 14.7856C124.402 18.8246 122.962 22.372 120.117 25.252C117.272 28.132 113.76 29.5369 109.651 29.5369C105.541 29.5369 102.099 28.0969 99.2194 25.2169C96.3394 22.3369 94.8994 18.8598 94.8994 14.7856C94.8994 10.7114 96.3394 7.19922 99.2545 4.3192C102.17 1.43919 105.717 0.0343018 109.896 0.0343018L109.861 0.0343018ZM109.615 8.32313C107.894 8.32313 106.454 8.95533 105.225 10.2197C103.996 11.4841 103.399 12.9944 103.399 14.7856C103.399 16.5768 103.996 18.0871 105.225 19.3515C106.454 20.6159 107.894 21.2481 109.615 21.2481C111.336 21.2481 112.812 20.6159 114.006 19.3515C115.2 18.0871 115.797 16.5768 115.797 14.7856C115.797 12.9944 115.2 11.449 114.006 10.2197C112.812 8.99045 111.336 8.32313 109.615 8.32313Z" fill="#3B465E"/>
<path d="M127.739 0.737427H136.098V17.4204C136.098 18.72 136.308 19.598 136.73 20.0195C137.151 20.4409 137.959 20.6517 139.224 20.6517H139.645V28.8H137.432C134.377 28.8 132.024 27.922 130.303 26.1307C128.582 24.3395 127.739 21.881 127.739 18.72V0.737427Z" fill="#3B465E"/>
<path d="M162.649 0.737427L150.391 30.4508L138.239 0.737427H147.897L150.461 9.51796L153.306 0.737427H162.614H162.649Z" fill="#3B465E"/>
<path d="M179.473 11.6613V17.913H174.029C173.292 17.913 172.765 18.0184 172.449 18.2291C172.133 18.4399 171.992 18.8262 171.992 19.353C171.992 19.9501 172.133 20.3365 172.449 20.5121C172.765 20.6877 173.397 20.7931 174.381 20.7931H180V28.836H173.432C170.342 28.836 167.988 28.0985 166.338 26.6233C164.687 25.1482 163.879 23.0058 163.879 20.2311V9.23787C163.879 6.53347 164.652 4.46126 166.197 2.98613C167.743 1.511 169.92 0.773438 172.695 0.773438H179.965V8.85153H174.626C173.186 8.85153 172.449 9.30812 172.449 10.2564C172.449 10.8184 172.624 11.1696 172.976 11.4154C173.327 11.6613 173.924 11.7315 174.802 11.7315H179.403L179.473 11.6613Z" fill="#3B465E"/>
</svg>
